<svg xmlns="http://www.w3.org/2000/svg" xmlns:xlink="http://www.w3.org/1999/xlink" contentStyleType="text/css" height="1283px" preserveAspectRatio="none" style="width:1340px;height:1283px;background:#FFFFFF;" version="1.1" viewBox="0 0 1340 1283" width="1340px" zoomAndPan="magnify"><defs/><g><text fill="#000000" font-family="sans-serif" font-size="14" font-weight="bold" lengthAdjust="spacing" textLength="359" x="486.75" y="27.9951">&#1054;&#1089;&#1085;&#1086;&#1074;&#1085;&#1086;&#1081; &#1089;&#1094;&#1077;&#1085;&#1072;&#1088;&#1080;&#1081; &#1088;&#1072;&#1073;&#1086;&#1090;&#1099; &#1089; &#1076;&#1086;&#1082;&#1083;&#1072;&#1076;&#1095;&#1080;&#1082;&#1086;&#1084;</text><rect fill="none" height="296.1328" style="stroke:#000000;stroke-width:1.5;" width="1224.5" x="10" y="353.5234"/><rect fill="none" height="265" style="stroke:#000000;stroke-width:1.5;" width="1204.5" x="20" y="377.6563"/><line style="stroke:#181818;stroke-width:0.5;stroke-dasharray:5.0,5.0;" x1="81" x2="81" y1="118.5938" y2="1202.9141"/><line style="stroke:#181818;stroke-width:0.5;stroke-dasharray:5.0,5.0;" x1="288.5" x2="288.5" y1="118.5938" y2="1202.9141"/><line style="stroke:#181818;stroke-width:0.5;stroke-dasharray:5.0,5.0;" x1="492.5" x2="492.5" y1="118.5938" y2="1202.9141"/><line style="stroke:#181818;stroke-width:0.5;stroke-dasharray:5.0,5.0;" x1="696.5" x2="696.5" y1="118.5938" y2="1202.9141"/><line style="stroke:#181818;stroke-width:0.5;stroke-dasharray:5.0,5.0;" x1="794.5" x2="794.5" y1="118.5938" y2="1202.9141"/><line style="stroke:#181818;stroke-width:0.5;stroke-dasharray:5.0,5.0;" x1="982.5" x2="982.5" y1="118.5938" y2="1202.9141"/><line style="stroke:#181818;stroke-width:0.5;stroke-dasharray:5.0,5.0;" x1="1170.5" x2="1170.5" y1="118.5938" y2="1202.9141"/><line style="stroke:#181818;stroke-width:0.5;stroke-dasharray:5.0,5.0;" x1="1276.5" x2="1276.5" y1="118.5938" y2="1202.9141"/><text fill="#000000" font-family="sans-serif" font-size="14" lengthAdjust="spacing" textLength="96" x="30" y="115.292">&#1054;&#1088;&#1075;&#1072;&#1085;&#1080;&#1079;&#1072;&#1090;&#1086;&#1088;</text><ellipse cx="81" cy="50.7969" fill="#E2E2F0" rx="8" ry="8" style="stroke:#181818;stroke-width:0.5;"/><path d="M81,58.7969 L81,85.7969 M68,66.7969 L94,66.7969 M81,85.7969 L68,100.7969 M81,85.7969 L94,100.7969 " fill="none" style="stroke:#181818;stroke-width:0.5;"/><text fill="#000000" font-family="sans-serif" font-size="14" lengthAdjust="spacing" textLength="96" x="30" y="1214.9092">&#1054;&#1088;&#1075;&#1072;&#1085;&#1080;&#1079;&#1072;&#1090;&#1086;&#1088;</text><ellipse cx="81" cy="1226.7109" fill="#E2E2F0" rx="8" ry="8" style="stroke:#181818;stroke-width:0.5;"/><path d="M81,1234.7109 L81,1261.7109 M68,1242.7109 L94,1242.7109 M81,1261.7109 L68,1276.7109 M81,1261.7109 L94,1276.7109 " fill="none" style="stroke:#181818;stroke-width:0.5;"/><rect fill="#E2E2F0" height="30.2969" rx="2.5" ry="2.5" style="stroke:#181818;stroke-width:0.5;" width="119" x="229.5" y="87.2969"/><text fill="#000000" font-family="sans-serif" font-size="14" lengthAdjust="spacing" textLength="105" x="236.5" y="107.292">&#1050;&#1086;&#1085;&#1092;&#1077;&#1088;&#1077;&#1085;&#1094;&#1080;&#1080;</text><rect fill="#E2E2F0" height="30.2969" rx="2.5" ry="2.5" style="stroke:#181818;stroke-width:0.5;" width="119" x="229.5" y="1201.9141"/><text fill="#000000" font-family="sans-serif" font-size="14" lengthAdjust="spacing" textLength="105" x="236.5" y="1221.9092">&#1050;&#1086;&#1085;&#1092;&#1077;&#1088;&#1077;&#1085;&#1094;&#1080;&#1080;</text><path d="M469.5,92.2969 L516.5,92.2969 C521.5,92.2969 521.5,105.4453 521.5,105.4453 C521.5,105.4453 521.5,118.5938 516.5,118.5938 L469.5,118.5938 C464.5,118.5938 464.5,105.4453 464.5,105.4453 C464.5,105.4453 464.5,92.2969 469.5,92.2969 " fill="#E2E2F0" style="stroke:#181818;stroke-width:0.5;"/><path d="M516.5,92.2969 C511.5,92.2969 511.5,105.4453 511.5,105.4453 C511.5,118.5938 516.5,118.5938 516.5,118.5938 " fill="none" style="stroke:#181818;stroke-width:0.5;"/><text fill="#000000" font-family="sans-serif" font-size="14" lengthAdjust="spacing" textLength="37" x="469.5" y="110.292">Kafka</text><path d="M469.5,1201.9141 L516.5,1201.9141 C521.5,1201.9141 521.5,1215.0625 521.5,1215.0625 C521.5,1215.0625 521.5,1228.2109 516.5,1228.2109 L469.5,1228.2109 C464.5,1228.2109 464.5,1215.0625 464.5,1215.0625 C464.5,1215.0625 464.5,1201.9141 469.5,1201.9141 " fill="#E2E2F0" style="stroke:#181818;stroke-width:0.5;"/><path d="M516.5,1201.9141 C511.5,1201.9141 511.5,1215.0625 511.5,1215.0625 C511.5,1228.2109 516.5,1228.2109 516.5,1228.2109 " fill="none" style="stroke:#181818;stroke-width:0.5;"/><text fill="#000000" font-family="sans-serif" font-size="14" lengthAdjust="spacing" textLength="37" x="469.5" y="1219.9092">Kafka</text><rect fill="#E2E2F0" height="30.2969" rx="2.5" ry="2.5" style="stroke:#181818;stroke-width:0.5;" width="67" x="663.5" y="87.2969"/><text fill="#000000" font-family="sans-serif" font-size="14" lengthAdjust="spacing" textLength="53" x="670.5" y="107.292">&#1041;&#1080;&#1083;&#1080;&#1085;&#1075;</text><rect fill="#E2E2F0" height="30.2969" rx="2.5" ry="2.5" style="stroke:#181818;stroke-width:0.5;" width="67" x="663.5" y="1201.9141"/><text fill="#000000" font-family="sans-serif" font-size="14" lengthAdjust="spacing" textLength="53" x="670.5" y="1221.9092">&#1041;&#1080;&#1083;&#1080;&#1085;&#1075;</text><rect fill="#E2E2F0" height="30.2969" rx="2.5" ry="2.5" style="stroke:#181818;stroke-width:0.5;" width="109" x="740.5" y="87.2969"/><text fill="#000000" font-family="sans-serif" font-size="14" lengthAdjust="spacing" textLength="95" x="747.5" y="107.292">&#1054;&#1087;&#1086;&#1074;&#1077;&#1097;&#1077;&#1085;&#1080;&#1103;</text><rect fill="#E2E2F0" height="30.2969" rx="2.5" ry="2.5" style="stroke:#181818;stroke-width:0.5;" width="109" x="740.5" y="1201.9141"/><text fill="#000000" font-family="sans-serif" font-size="14" lengthAdjust="spacing" textLength="95" x="747.5" y="1221.9092">&#1054;&#1087;&#1086;&#1074;&#1077;&#1097;&#1077;&#1085;&#1080;&#1103;</text><rect fill="#E2E2F0" height="30.2969" rx="2.5" ry="2.5" style="stroke:#181818;stroke-width:0.5;" width="53" x="956.5" y="87.2969"/><text fill="#000000" font-family="sans-serif" font-size="14" lengthAdjust="spacing" textLength="39" x="963.5" y="107.292">SMTP</text><rect fill="#E2E2F0" height="30.2969" rx="2.5" ry="2.5" style="stroke:#181818;stroke-width:0.5;" width="53" x="956.5" y="1201.9141"/><text fill="#000000" font-family="sans-serif" font-size="14" lengthAdjust="spacing" textLength="39" x="963.5" y="1221.9092">SMTP</text><text fill="#000000" font-family="sans-serif" font-size="14" lengthAdjust="spacing" textLength="81" x="1127.5" y="115.292">&#1044;&#1086;&#1082;&#1083;&#1072;&#1076;&#1095;&#1080;&#1082;</text><ellipse cx="1171" cy="50.7969" fill="#E2E2F0" rx="8" ry="8" style="stroke:#181818;stroke-width:0.5;"/><path d="M1171,58.7969 L1171,85.7969 M1158,66.7969 L1184,66.7969 M1171,85.7969 L1158,100.7969 M1171,85.7969 L1184,100.7969 " fill="none" style="stroke:#181818;stroke-width:0.5;"/><text fill="#000000" font-family="sans-serif" font-size="14" lengthAdjust="spacing" textLength="81" x="1127.5" y="1214.9092">&#1044;&#1086;&#1082;&#1083;&#1072;&#1076;&#1095;&#1080;&#1082;</text><ellipse cx="1171" cy="1226.7109" fill="#E2E2F0" rx="8" ry="8" style="stroke:#181818;stroke-width:0.5;"/><path d="M1171,1234.7109 L1171,1261.7109 M1158,1242.7109 L1184,1242.7109 M1171,1261.7109 L1158,1276.7109 M1171,1261.7109 L1184,1276.7109 " fill="none" style="stroke:#181818;stroke-width:0.5;"/><text fill="#000000" font-family="sans-serif" font-size="14" lengthAdjust="spacing" textLength="98" x="1224.5" y="115.292">&#1055;&#1086;&#1086;&#1089;&#1077;&#1090;&#1080;&#1090;&#1077;&#1083;&#1100;</text><ellipse cx="1276.5" cy="50.7969" fill="#E2E2F0" rx="8" ry="8" style="stroke:#181818;stroke-width:0.5;"/><path d="M1276.5,58.7969 L1276.5,85.7969 M1263.5,66.7969 L1289.5,66.7969 M1276.5,85.7969 L1263.5,100.7969 M1276.5,85.7969 L1289.5,100.7969 " fill="none" style="stroke:#181818;stroke-width:0.5;"/><text fill="#000000" font-family="sans-serif" font-size="14" lengthAdjust="spacing" textLength="98" x="1224.5" y="1214.9092">&#1055;&#1086;&#1086;&#1089;&#1077;&#1090;&#1080;&#1090;&#1077;&#1083;&#1100;</text><ellipse cx="1276.5" cy="1226.7109" fill="#E2E2F0" rx="8" ry="8" style="stroke:#181818;stroke-width:0.5;"/><path d="M1276.5,1234.7109 L1276.5,1261.7109 M1263.5,1242.7109 L1289.5,1242.7109 M1276.5,1261.7109 L1263.5,1276.7109 M1276.5,1261.7109 L1289.5,1276.7109 " fill="none" style="stroke:#181818;stroke-width:0.5;"/><rect fill="#EEEEEE" height="3" style="stroke:#EEEEEE;stroke-width:1.0;" width="1333.5" x="0" y="149.1602"/><line style="stroke:#000000;stroke-width:1.0;" x1="0" x2="1333.5" y1="149.1602" y2="149.1602"/><line style="stroke:#000000;stroke-width:1.0;" x1="0" x2="1333.5" y1="152.1602" y2="152.1602"/><rect fill="#EEEEEE" height="23.1328" style="stroke:#000000;stroke-width:2.0;" width="198" x="567.75" y="138.5938"/><text fill="#000000" font-family="sans-serif" font-size="13" font-weight="bold" lengthAdjust="spacing" textLength="184" x="573.75" y="154.6606">&#1057;&#1086;&#1079;&#1076;&#1072;&#1085;&#1080;&#1077; &#1082;&#1086;&#1085;&#1092;&#1077;&#1088;&#1077;&#1085;&#1094;&#1080;&#1080;</text><polygon fill="#181818" points="277,188.8594,287,192.8594,277,196.8594,281,192.8594" style="stroke:#181818;stroke-width:1.0;"/><line style="stroke:#181818;stroke-width:1.0;" x1="81" x2="283" y1="192.8594" y2="192.8594"/><text fill="#000000" font-family="sans-serif" font-size="13" lengthAdjust="spacing" textLength="184" x="88" y="187.7935">&#1056;&#1077;&#1075;&#1080;&#1089;&#1090;&#1088;&#1072;&#1094;&#1080;&#1103; &#1082;&#1086;&#1085;&#1092;&#1077;&#1088;&#1077;&#1085;&#1094;&#1080;&#1080;</text><polygon fill="#181818" points="481,217.9922,491,221.9922,481,225.9922,485,221.9922" style="stroke:#181818;stroke-width:1.0;"/><line style="stroke:#181818;stroke-width:1.0;" x1="289" x2="487" y1="221.9922" y2="221.9922"/><text fill="#000000" font-family="sans-serif" font-size="13" lengthAdjust="spacing" textLength="91" x="296" y="216.9263">&#1055;&#1088;&#1080;&#1075;&#1083;&#1072;&#1096;&#1077;&#1085;&#1080;&#1103;</text><line style="stroke:#181818;stroke-width:1.0;" x1="793" x2="783" y1="251.125" y2="247.125"/><line style="stroke:#181818;stroke-width:1.0;" x1="793" x2="783" y1="251.125" y2="255.125"/><line style="stroke:#181818;stroke-width:1.0;stroke-dasharray:2.0,2.0;" x1="493" x2="794" y1="251.125" y2="251.125"/><text fill="#000000" font-family="sans-serif" font-size="13" lengthAdjust="spacing" textLength="91" x="500" y="246.0591">&#1055;&#1088;&#1080;&#1075;&#1083;&#1072;&#1096;&#1077;&#1085;&#1080;&#1103;</text><polygon fill="#181818" points="971,276.2578,981,280.2578,971,284.2578,975,280.2578" style="stroke:#181818;stroke-width:1.0;"/><line style="stroke:#181818;stroke-width:1.0;" x1="795" x2="977" y1="280.2578" y2="280.2578"/><text fill="#000000" font-family="sans-serif" font-size="13" lengthAdjust="spacing" textLength="91" x="802" y="275.1919">&#1055;&#1088;&#1080;&#1075;&#1083;&#1072;&#1096;&#1077;&#1085;&#1080;&#1103;</text><polygon fill="#181818" points="300,305.3906,290,309.3906,300,313.3906,296,309.3906" style="stroke:#181818;stroke-width:1.0;"/><line style="stroke:#181818;stroke-width:1.0;" x1="294" x2="1170" y1="309.3906" y2="309.3906"/><text fill="#000000" font-family="sans-serif" font-size="13" lengthAdjust="spacing" textLength="152" x="306" y="304.3247">&#1056;&#1077;&#1075;&#1080;&#1089;&#1090;&#1072;&#1088;&#1094;&#1080;&#1103; &#1076;&#1086;&#1082;&#1083;&#1072;&#1076;&#1072;</text><line style="stroke:#181818;stroke-width:1.0;" x1="82" x2="92" y1="338.5234" y2="334.5234"/><line style="stroke:#181818;stroke-width:1.0;" x1="82" x2="92" y1="338.5234" y2="342.5234"/><line style="stroke:#181818;stroke-width:1.0;stroke-dasharray:2.0,2.0;" x1="81" x2="288" y1="338.5234" y2="338.5234"/><text fill="#000000" font-family="sans-serif" font-size="13" lengthAdjust="spacing" textLength="172" x="98" y="333.4575">&#1044;&#1086;&#1082;&#1083;&#1072;&#1076;&#1099; &#1076;&#1083;&#1103; &#1074;&#1072;&#1083;&#1080;&#1076;&#1072;&#1094;&#1080;&#1080;</text><path d="M10,353.5234 L87,353.5234 L87,360.6563 L77,370.6563 L10,370.6563 L10,353.5234 " fill="#EEEEEE" style="stroke:#000000;stroke-width:1.5;"/><rect fill="none" height="296.1328" style="stroke:#000000;stroke-width:1.5;" width="1224.5" x="10" y="353.5234"/><text fill="#000000" font-family="sans-serif" font-size="13" font-weight="bold" lengthAdjust="spacing" textLength="32" x="25" y="366.5903">loop</text><text fill="#000000" font-family="sans-serif" font-size="11" font-weight="bold" lengthAdjust="spacing" textLength="141" x="102" y="365.7339">[&#1055;&#1088;&#1086;&#1074;&#1077;&#1088;&#1082;&#1072; &#1076;&#1086;&#1082;&#1083;&#1072;&#1076;&#1086;&#1074;]</text><path d="M20,377.6563 L84,377.6563 L84,384.7891 L74,394.7891 L20,394.7891 L20,377.6563 " fill="#EEEEEE" style="stroke:#000000;stroke-width:1.5;"/><rect fill="none" height="265" style="stroke:#000000;stroke-width:1.5;" width="1204.5" x="20" y="377.6563"/><text fill="#000000" font-family="sans-serif" font-size="13" font-weight="bold" lengthAdjust="spacing" textLength="19" x="35" y="390.7231">alt</text><text fill="#000000" font-family="sans-serif" font-size="11" font-weight="bold" lengthAdjust="spacing" textLength="108" x="99" y="389.8667">[&#1076;&#1086;&#1082;&#1083;&#1072;&#1076; &#1087;&#1088;&#1080;&#1085;&#1103;&#1090;]</text><polygon fill="#181818" points="277,411.9219,287,415.9219,277,419.9219,281,415.9219" style="stroke:#181818;stroke-width:1.0;"/><line style="stroke:#181818;stroke-width:1.0;" x1="81" x2="283" y1="415.9219" y2="415.9219"/><text fill="#000000" font-family="sans-serif" font-size="13" lengthAdjust="spacing" textLength="140" x="88" y="410.856">&#1042;&#1072;&#1083;&#1080;&#1076;&#1072;&#1094;&#1080;&#1103; &#1076;&#1086;&#1082;&#1083;&#1072;&#1076;&#1072;</text><line style="stroke:#000000;stroke-width:1.0;stroke-dasharray:2.0,2.0;" x1="20" x2="1224.5" y1="424.9219" y2="424.9219"/><text fill="#000000" font-family="sans-serif" font-size="11" font-weight="bold" lengthAdjust="spacing" textLength="112" x="25" y="435.1323">[&#1077;&#1089;&#1090;&#1100; &#1079;&#1072;&#1084;&#1077;&#1095;&#1072;&#1085;&#1080;&#1103;]</text><polygon fill="#181818" points="277,455.8594,287,459.8594,277,463.8594,281,459.8594" style="stroke:#181818;stroke-width:1.0;"/><line style="stroke:#181818;stroke-width:1.0;" x1="81" x2="283" y1="459.8594" y2="459.8594"/><text fill="#000000" font-family="sans-serif" font-size="13" lengthAdjust="spacing" textLength="157" x="88" y="454.7935">&#1047;&#1072;&#1084;&#1077;&#1095;&#1072;&#1085;&#1080;&#1103; &#1087;&#1086; &#1076;&#1086;&#1082;&#1083;&#1072;&#1076;&#1091;</text><polygon fill="#181818" points="481,484.9922,491,488.9922,481,492.9922,485,488.9922" style="stroke:#181818;stroke-width:1.0;"/><line style="stroke:#181818;stroke-width:1.0;" x1="289" x2="487" y1="488.9922" y2="488.9922"/><text fill="#000000" font-family="sans-serif" font-size="13" lengthAdjust="spacing" textLength="157" x="296" y="483.9263">&#1047;&#1072;&#1084;&#1077;&#1095;&#1072;&#1085;&#1080;&#1103; &#1087;&#1086; &#1076;&#1086;&#1082;&#1083;&#1072;&#1076;&#1091;</text><line style="stroke:#181818;stroke-width:1.0;" x1="793" x2="783" y1="518.125" y2="514.125"/><line style="stroke:#181818;stroke-width:1.0;" x1="793" x2="783" y1="518.125" y2="522.125"/><line style="stroke:#181818;stroke-width:1.0;stroke-dasharray:2.0,2.0;" x1="493" x2="794" y1="518.125" y2="518.125"/><text fill="#000000" font-family="sans-serif" font-size="13" lengthAdjust="spacing" textLength="157" x="500" y="513.0591">&#1047;&#1072;&#1084;&#1077;&#1095;&#1072;&#1085;&#1080;&#1103; &#1087;&#1086; &#1076;&#1086;&#1082;&#1083;&#1072;&#1076;&#1091;</text><polygon fill="#181818" points="971,543.2578,981,547.2578,971,551.2578,975,547.2578" style="stroke:#181818;stroke-width:1.0;"/><line style="stroke:#181818;stroke-width:1.0;" x1="795" x2="977" y1="547.2578" y2="547.2578"/><text fill="#000000" font-family="sans-serif" font-size="13" lengthAdjust="spacing" textLength="157" x="802" y="542.1919">&#1047;&#1072;&#1084;&#1077;&#1095;&#1072;&#1085;&#1080;&#1103; &#1087;&#1086; &#1076;&#1086;&#1082;&#1083;&#1072;&#1076;&#1091;</text><line style="stroke:#181818;stroke-width:1.0;" x1="1169" x2="1159" y1="576.3906" y2="572.3906"/><line style="stroke:#181818;stroke-width:1.0;" x1="1169" x2="1159" y1="576.3906" y2="580.3906"/><line style="stroke:#181818;stroke-width:1.0;stroke-dasharray:2.0,2.0;" x1="983" x2="1170" y1="576.3906" y2="576.3906"/><text fill="#000000" font-family="sans-serif" font-size="13" lengthAdjust="spacing" textLength="157" x="990" y="571.3247">&#1047;&#1072;&#1084;&#1077;&#1095;&#1072;&#1085;&#1080;&#1103; &#1087;&#1086; &#1076;&#1086;&#1082;&#1083;&#1072;&#1076;&#1091;</text><polygon fill="#181818" points="300,601.5234,290,605.5234,300,609.5234,296,605.5234" style="stroke:#181818;stroke-width:1.0;"/><line style="stroke:#181818;stroke-width:1.0;" x1="294" x2="1170" y1="605.5234" y2="605.5234"/><text fill="#000000" font-family="sans-serif" font-size="13" lengthAdjust="spacing" textLength="152" x="306" y="600.4575">&#1056;&#1077;&#1075;&#1080;&#1089;&#1090;&#1072;&#1088;&#1094;&#1080;&#1103; &#1076;&#1086;&#1082;&#1083;&#1072;&#1076;&#1072;</text><line style="stroke:#181818;stroke-width:1.0;" x1="82" x2="92" y1="634.6563" y2="630.6563"/><line style="stroke:#181818;stroke-width:1.0;" x1="82" x2="92" y1="634.6563" y2="638.6563"/><line style="stroke:#181818;stroke-width:1.0;stroke-dasharray:2.0,2.0;" x1="81" x2="288" y1="634.6563" y2="634.6563"/><text fill="#000000" font-family="sans-serif" font-size="13" lengthAdjust="spacing" textLength="172" x="98" y="629.5903">&#1044;&#1086;&#1082;&#1083;&#1072;&#1076;&#1099; &#1076;&#1083;&#1103; &#1074;&#1072;&#1083;&#1080;&#1076;&#1072;&#1094;&#1080;&#1080;</text><rect fill="#EEEEEE" height="3" style="stroke:#EEEEEE;stroke-width:1.0;" width="1333.5" x="0" y="677.2227"/><line style="stroke:#000000;stroke-width:1.0;" x1="0" x2="1333.5" y1="677.2227" y2="677.2227"/><line style="stroke:#000000;stroke-width:1.0;" x1="0" x2="1333.5" y1="680.2227" y2="680.2227"/><rect fill="#EEEEEE" height="23.1328" style="stroke:#000000;stroke-width:2.0;" width="181" x="576.25" y="666.6563"/><text fill="#000000" font-family="sans-serif" font-size="13" font-weight="bold" lengthAdjust="spacing" textLength="167" x="582.25" y="682.7231">&#1057;&#1086;&#1079;&#1076;&#1072;&#1085;&#1080;&#1077; &#1088;&#1072;&#1089;&#1087;&#1080;&#1089;&#1072;&#1085;&#1080;&#1103;</text><polygon fill="#181818" points="277,716.9219,287,720.9219,277,724.9219,281,720.9219" style="stroke:#181818;stroke-width:1.0;"/><line style="stroke:#181818;stroke-width:1.0;" x1="81" x2="283" y1="720.9219" y2="720.9219"/><text fill="#000000" font-family="sans-serif" font-size="13" lengthAdjust="spacing" textLength="160" x="88" y="715.856">&#1047;&#1072;&#1082;&#1088;&#1099;&#1090;&#1080;&#1077; &#1088;&#1077;&#1075;&#1080;&#1089;&#1090;&#1088;&#1072;&#1094;&#1080;&#1080;</text><line style="stroke:#181818;stroke-width:1.0;" x1="289" x2="331" y1="750.0547" y2="750.0547"/><line style="stroke:#181818;stroke-width:1.0;" x1="331" x2="331" y1="750.0547" y2="763.0547"/><line style="stroke:#181818;stroke-width:1.0;" x1="290" x2="331" y1="763.0547" y2="763.0547"/><polygon fill="#181818" points="300,759.0547,290,763.0547,300,767.0547,296,763.0547" style="stroke:#181818;stroke-width:1.0;"/><text fill="#000000" font-family="sans-serif" font-size="13" lengthAdjust="spacing" textLength="171" x="296" y="744.9888">&#1057;&#1086;&#1089;&#1090;&#1072;&#1074;&#1083;&#1077;&#1085;&#1080;&#1077; &#1088;&#1072;&#1089;&#1087;&#1080;&#1089;&#1072;&#1085;&#1080;&#1103;</text><line style="stroke:#181818;stroke-width:1.0;" x1="82" x2="92" y1="792.1875" y2="788.1875"/><line style="stroke:#181818;stroke-width:1.0;" x1="82" x2="92" y1="792.1875" y2="796.1875"/><line style="stroke:#181818;stroke-width:1.0;stroke-dasharray:2.0,2.0;" x1="81" x2="288" y1="792.1875" y2="792.1875"/><text fill="#000000" font-family="sans-serif" font-size="13" lengthAdjust="spacing" textLength="158" x="98" y="787.1216">&#1042;&#1072;&#1083;&#1080;&#1076;&#1072;&#1094;&#1080;&#1103; &#1088;&#1072;&#1089;&#1087;&#1080;&#1089;&#1072;&#1085;&#1080;&#1103;</text><polygon fill="#181818" points="277,817.3203,287,821.3203,277,825.3203,281,821.3203" style="stroke:#181818;stroke-width:1.0;"/><line style="stroke:#181818;stroke-width:1.0;" x1="81" x2="283" y1="821.3203" y2="821.3203"/><text fill="#000000" font-family="sans-serif" font-size="13" lengthAdjust="spacing" textLength="158" x="88" y="816.2544">&#1042;&#1072;&#1083;&#1080;&#1076;&#1072;&#1094;&#1080;&#1103; &#1088;&#1072;&#1089;&#1087;&#1080;&#1089;&#1072;&#1085;&#1080;&#1103;</text><polygon fill="#181818" points="481,846.4531,491,850.4531,481,854.4531,485,850.4531" style="stroke:#181818;stroke-width:1.0;"/><line style="stroke:#181818;stroke-width:1.0;" x1="289" x2="487" y1="850.4531" y2="850.4531"/><text fill="#000000" font-family="sans-serif" font-size="13" lengthAdjust="spacing" textLength="164" x="296" y="845.3872">&#1054;&#1073;&#1085;&#1086;&#1074;&#1083;&#1077;&#1085;&#1080;&#1077; &#1088;&#1072;&#1089;&#1087;&#1080;&#1089;&#1072;&#1085;&#1080;&#1103;</text><line style="stroke:#181818;stroke-width:1.0;" x1="793" x2="783" y1="879.5859" y2="875.5859"/><line style="stroke:#181818;stroke-width:1.0;" x1="793" x2="783" y1="879.5859" y2="883.5859"/><line style="stroke:#181818;stroke-width:1.0;stroke-dasharray:2.0,2.0;" x1="493" x2="794" y1="879.5859" y2="879.5859"/><text fill="#000000" font-family="sans-serif" font-size="13" lengthAdjust="spacing" textLength="164" x="500" y="874.52">&#1054;&#1073;&#1085;&#1086;&#1074;&#1083;&#1077;&#1085;&#1080;&#1077; &#1088;&#1072;&#1089;&#1087;&#1080;&#1089;&#1072;&#1085;&#1080;&#1103;</text><polygon fill="#181818" points="971,904.7188,981,908.7188,971,912.7188,975,908.7188" style="stroke:#181818;stroke-width:1.0;"/><line style="stroke:#181818;stroke-width:1.0;" x1="795" x2="977" y1="908.7188" y2="908.7188"/><text fill="#000000" font-family="sans-serif" font-size="13" lengthAdjust="spacing" textLength="164" x="802" y="903.6528">&#1054;&#1073;&#1085;&#1086;&#1074;&#1083;&#1077;&#1085;&#1080;&#1077; &#1088;&#1072;&#1089;&#1087;&#1080;&#1089;&#1072;&#1085;&#1080;&#1103;</text><line style="stroke:#181818;stroke-width:1.0;" x1="1169" x2="1159" y1="937.8516" y2="933.8516"/><line style="stroke:#181818;stroke-width:1.0;" x1="1169" x2="1159" y1="937.8516" y2="941.8516"/><line style="stroke:#181818;stroke-width:1.0;stroke-dasharray:2.0,2.0;" x1="983" x2="1170" y1="937.8516" y2="937.8516"/><text fill="#000000" font-family="sans-serif" font-size="13" lengthAdjust="spacing" textLength="164" x="990" y="932.7856">&#1054;&#1073;&#1085;&#1086;&#1074;&#1083;&#1077;&#1085;&#1080;&#1077; &#1088;&#1072;&#1089;&#1087;&#1080;&#1089;&#1072;&#1085;&#1080;&#1103;</text><line style="stroke:#181818;stroke-width:1.0;" x1="1274.5" x2="1264.5" y1="966.9844" y2="962.9844"/><line style="stroke:#181818;stroke-width:1.0;" x1="1274.5" x2="1264.5" y1="966.9844" y2="970.9844"/><line style="stroke:#181818;stroke-width:1.0;stroke-dasharray:2.0,2.0;" x1="983" x2="1275.5" y1="966.9844" y2="966.9844"/><text fill="#000000" font-family="sans-serif" font-size="13" lengthAdjust="spacing" textLength="164" x="990" y="961.9185">&#1054;&#1073;&#1085;&#1086;&#1074;&#1083;&#1077;&#1085;&#1080;&#1077; &#1088;&#1072;&#1089;&#1087;&#1080;&#1089;&#1072;&#1085;&#1080;&#1103;</text><rect fill="#EEEEEE" height="3" style="stroke:#EEEEEE;stroke-width:1.0;" width="1333.5" x="0" y="995.5508"/><line style="stroke:#000000;stroke-width:1.0;" x1="0" x2="1333.5" y1="995.5508" y2="995.5508"/><line style="stroke:#000000;stroke-width:1.0;" x1="0" x2="1333.5" y1="998.5508" y2="998.5508"/><rect fill="#EEEEEE" height="23.1328" style="stroke:#000000;stroke-width:2.0;" width="219" x="557.25" y="984.9844"/><text fill="#000000" font-family="sans-serif" font-size="13" font-weight="bold" lengthAdjust="spacing" textLength="205" x="563.25" y="1001.0513">&#1047;&#1072;&#1074;&#1077;&#1088;&#1096;&#1077;&#1085;&#1080;&#1077; &#1082;&#1086;&#1085;&#1092;&#1077;&#1088;&#1077;&#1085;&#1094;&#1080;&#1080;</text><polygon fill="#181818" points="277,1035.25,287,1039.25,277,1043.25,281,1039.25" style="stroke:#181818;stroke-width:1.0;"/><line style="stroke:#181818;stroke-width:1.0;" x1="81" x2="283" y1="1039.25" y2="1039.25"/><text fill="#000000" font-family="sans-serif" font-size="13" lengthAdjust="spacing" textLength="180" x="88" y="1034.1841">&#1047;&#1072;&#1074;&#1077;&#1088;&#1096;&#1077;&#1085;&#1080;&#1077; &#1082;&#1086;&#1085;&#1092;&#1077;&#1088;&#1077;&#1085;&#1094;&#1080;&#1080;</text><polygon fill="#181818" points="481,1064.3828,491,1068.3828,481,1072.3828,485,1068.3828" style="stroke:#181818;stroke-width:1.0;"/><line style="stroke:#181818;stroke-width:1.0;" x1="289" x2="487" y1="1068.3828" y2="1068.3828"/><text fill="#000000" font-family="sans-serif" font-size="13" lengthAdjust="spacing" textLength="180" x="296" y="1063.3169">&#1047;&#1072;&#1074;&#1077;&#1088;&#1096;&#1077;&#1085;&#1080;&#1077; &#1082;&#1086;&#1085;&#1092;&#1077;&#1088;&#1077;&#1085;&#1094;&#1080;&#1080;</text><line style="stroke:#181818;stroke-width:1.0;" x1="695" x2="685" y1="1097.5156" y2="1093.5156"/><line style="stroke:#181818;stroke-width:1.0;" x1="695" x2="685" y1="1097.5156" y2="1101.5156"/><line style="stroke:#181818;stroke-width:1.0;stroke-dasharray:2.0,2.0;" x1="493" x2="696" y1="1097.5156" y2="1097.5156"/><text fill="#000000" font-family="sans-serif" font-size="13" lengthAdjust="spacing" textLength="180" x="500" y="1092.4497">&#1047;&#1072;&#1074;&#1077;&#1088;&#1096;&#1077;&#1085;&#1080;&#1077; &#1082;&#1086;&#1085;&#1092;&#1077;&#1088;&#1077;&#1085;&#1094;&#1080;&#1080;</text><polygon fill="#181818" points="1159,1122.6484,1169,1126.6484,1159,1130.6484,1163,1126.6484" style="stroke:#181818;stroke-width:1.0;"/><line style="stroke:#181818;stroke-width:1.0;" x1="697" x2="1165" y1="1126.6484" y2="1126.6484"/><text fill="#000000" font-family="sans-serif" font-size="13" lengthAdjust="spacing" textLength="144" x="704" y="1121.5825">&#1054;&#1087;&#1083;&#1072;&#1090;&#1072; &#1074;&#1099;&#1089;&#1090;&#1091;&#1087;&#1083;&#1077;&#1085;&#1080;&#1103;</text><polygon fill="#181818" points="504,1151.7813,494,1155.7813,504,1159.7813,500,1155.7813" style="stroke:#181818;stroke-width:1.0;"/><line style="stroke:#181818;stroke-width:1.0;" x1="498" x2="696" y1="1155.7813" y2="1155.7813"/><text fill="#000000" font-family="sans-serif" font-size="13" lengthAdjust="spacing" textLength="169" x="510" y="1150.7153">&#1055;&#1086;&#1076;&#1090;&#1074;&#1077;&#1088;&#1078;&#1076;&#1077;&#1085;&#1080;&#1077; &#1086;&#1087;&#1083;&#1072;&#1090;&#1099;</text><line style="stroke:#181818;stroke-width:1.0;" x1="290" x2="300" y1="1184.9141" y2="1180.9141"/><line style="stroke:#181818;stroke-width:1.0;" x1="290" x2="300" y1="1184.9141" y2="1188.9141"/><line style="stroke:#181818;stroke-width:1.0;stroke-dasharray:2.0,2.0;" x1="289" x2="492" y1="1184.9141" y2="1184.9141"/><text fill="#000000" font-family="sans-serif" font-size="13" lengthAdjust="spacing" textLength="169" x="306" y="1179.8481">&#1055;&#1086;&#1076;&#1090;&#1074;&#1077;&#1088;&#1078;&#1076;&#1077;&#1085;&#1080;&#1077; &#1086;&#1087;&#1083;&#1072;&#1090;&#1099;</text><!--SRC=[lLLRRjD05FsVLSm6ie5AoGSWyO4ga603LkeY2oiEYVFlfAW5fL85Ggh4Hqft49AOkd6TRE7EZZXtfjDcx8GwV139aSPppdsS-t0SnA4lQQA6LD2APlh_LggXEgKKXwbAAECN2Ktf5wtKI8rnAsa1t99ol5seCq2MEDy9hnr7FMb-C9hG7802rpUmD08zaLvVlkwz5wBhzUAW7NIzJYpf1zY5-aGfA70Bvnbb37qUTOwb41y7_i2_j_lAE_xWoPA1ho3aU0gQC-rP48OkO49hdL-glkZ4CdN1m4Cl2AM3V7luxerm4_bUpfMPBwAsYxe2QWKTKoIQuKafL-UCV3dm-x4GejcaQs1ke9qH9PLQjahYpQQ0HBBHCkaVIFg9opci3g4_Ai4mnB-TBJG9P2CKs5UwY7FEG7sssGjptMYqMbg5dJWj4SonC3j1K6D7lDn2DjwDfg7fVPpidxCzS7KUCpfdqWndBkt2v8q4moZgca1CHHEmfgvrN0WlZ9sNajOwza9Tg55PuM-kbsgqVjZ7eAIw1EUI6vhkS3mpjOG49OENPO3a3dG7vyIjLMrMjNJrUALIrYCnsFZY8jUc_TUEy3j7-jasOtfWXWWHpct4rGdZf9Q8QypJQrYLaTkOBKkxvf7db11KRgPXXyjgSjMMsyfxib7_uksniIROtcR3Fn5cjRTgKqljLPjNwR1_OEebkm-LM-LIrmqBn6woFLPoVUxM8Qz9tQW6VzFs8pE3_JwekjPRUyJBSePEvzO-qI_j6hUCnqy732_0C6lsDxhkmUVAcbFZpJ2jFlMOVm00]--></g></svg>